<mxfile host="app.diagrams.net" agent="Mozilla/5.0 (Windows NT 10.0; Win64; x64) AppleWebKit/537.36 (KHTML, like Gecko) Chrome/133.0.0.0 Safari/537.36" version="26.0.15">
  <diagram name="Page-1" id="hTjtBX7i-eOcy_X8j2Lw">
    <mxGraphModel dx="1290" dy="522" grid="1" gridSize="10" guides="1" tooltips="1" connect="1" arrows="1" fold="1" page="1" pageScale="1" pageWidth="850" pageHeight="1100" math="0" shadow="0">
      <root>
        <mxCell id="0" />
        <mxCell id="1" parent="0" />
        <mxCell id="jQtlUSDWuj2KYqsU9cgf-1" value="K线图" style="swimlane;fontStyle=0;childLayout=stackLayout;horizontal=1;startSize=30;horizontalStack=0;resizeParent=1;resizeParentMax=0;resizeLast=0;collapsible=1;marginBottom=0;whiteSpace=wrap;html=1;" parent="1" vertex="1">
          <mxGeometry x="40" y="80" width="200" height="240" as="geometry" />
        </mxCell>
        <mxCell id="jQtlUSDWuj2KYqsU9cgf-2" value="开盘价(K线实体的上（下）边" style="text;strokeColor=none;fillColor=none;align=left;verticalAlign=middle;spacingLeft=4;spacingRight=4;overflow=hidden;points=[[0,0.5],[1,0.5]];portConstraint=eastwest;rotatable=0;whiteSpace=wrap;html=1;" parent="jQtlUSDWuj2KYqsU9cgf-1" vertex="1">
          <mxGeometry y="30" width="200" height="30" as="geometry" />
        </mxCell>
        <mxCell id="jQtlUSDWuj2KYqsU9cgf-3" value="收盘价" style="text;strokeColor=none;fillColor=none;align=left;verticalAlign=middle;spacingLeft=4;spacingRight=4;overflow=hidden;points=[[0,0.5],[1,0.5]];portConstraint=eastwest;rotatable=0;whiteSpace=wrap;html=1;" parent="jQtlUSDWuj2KYqsU9cgf-1" vertex="1">
          <mxGeometry y="60" width="200" height="30" as="geometry" />
        </mxCell>
        <mxCell id="jQtlUSDWuj2KYqsU9cgf-4" value="K线实体颜色" style="text;strokeColor=none;fillColor=none;align=left;verticalAlign=middle;spacingLeft=4;spacingRight=4;overflow=hidden;points=[[0,0.5],[1,0.5]];portConstraint=eastwest;rotatable=0;whiteSpace=wrap;html=1;" parent="jQtlUSDWuj2KYqsU9cgf-1" vertex="1">
          <mxGeometry y="90" width="200" height="30" as="geometry" />
        </mxCell>
        <mxCell id="jQtlUSDWuj2KYqsU9cgf-5" value="最高价（影线的最高点）" style="text;strokeColor=none;fillColor=none;align=left;verticalAlign=middle;spacingLeft=4;spacingRight=4;overflow=hidden;points=[[0,0.5],[1,0.5]];portConstraint=eastwest;rotatable=0;whiteSpace=wrap;html=1;" parent="jQtlUSDWuj2KYqsU9cgf-1" vertex="1">
          <mxGeometry y="120" width="200" height="30" as="geometry" />
        </mxCell>
        <mxCell id="jQtlUSDWuj2KYqsU9cgf-6" value="最低价" style="text;strokeColor=none;fillColor=none;align=left;verticalAlign=middle;spacingLeft=4;spacingRight=4;overflow=hidden;points=[[0,0.5],[1,0.5]];portConstraint=eastwest;rotatable=0;whiteSpace=wrap;html=1;" parent="jQtlUSDWuj2KYqsU9cgf-1" vertex="1">
          <mxGeometry y="150" width="200" height="30" as="geometry" />
        </mxCell>
        <mxCell id="jQtlUSDWuj2KYqsU9cgf-11" value="纵坐标（交易价格）" style="text;strokeColor=none;fillColor=none;align=left;verticalAlign=middle;spacingLeft=4;spacingRight=4;overflow=hidden;points=[[0,0.5],[1,0.5]];portConstraint=eastwest;rotatable=0;whiteSpace=wrap;html=1;" parent="jQtlUSDWuj2KYqsU9cgf-1" vertex="1">
          <mxGeometry y="180" width="200" height="30" as="geometry" />
        </mxCell>
        <mxCell id="jQtlUSDWuj2KYqsU9cgf-12" value="横坐标（时间）" style="text;strokeColor=none;fillColor=none;align=left;verticalAlign=middle;spacingLeft=4;spacingRight=4;overflow=hidden;points=[[0,0.5],[1,0.5]];portConstraint=eastwest;rotatable=0;whiteSpace=wrap;html=1;" parent="jQtlUSDWuj2KYqsU9cgf-1" vertex="1">
          <mxGeometry y="210" width="200" height="30" as="geometry" />
        </mxCell>
        <mxCell id="jQtlUSDWuj2KYqsU9cgf-7" value="&lt;h1 style=&quot;margin-top: 0px;&quot;&gt;K线实体颜色&lt;/h1&gt;&lt;p&gt;&lt;span style=&quot;background-color: transparent; color: light-dark(rgb(0, 0, 0), rgb(255, 255, 255));&quot;&gt;不同交易所上涨的颜色不同，基本是红绿互换，A股港股红色上涨，美股是绿色上涨&lt;/span&gt;.&lt;/p&gt;" style="text;html=1;whiteSpace=wrap;overflow=hidden;rounded=0;" parent="1" vertex="1">
          <mxGeometry x="520" y="110" width="180" height="120" as="geometry" />
        </mxCell>
        <mxCell id="jQtlUSDWuj2KYqsU9cgf-13" value="买方" style="shape=umlActor;verticalLabelPosition=bottom;verticalAlign=top;html=1;outlineConnect=0;" parent="1" vertex="1">
          <mxGeometry x="80" y="430" width="30" height="60" as="geometry" />
        </mxCell>
        <mxCell id="jQtlUSDWuj2KYqsU9cgf-14" value="卖方" style="shape=umlActor;verticalLabelPosition=bottom;verticalAlign=top;html=1;outlineConnect=0;" parent="1" vertex="1">
          <mxGeometry x="80" y="580" width="30" height="60" as="geometry" />
        </mxCell>
        <mxCell id="jQtlUSDWuj2KYqsU9cgf-16" value="参与角色" style="swimlane;fontStyle=0;childLayout=stackLayout;horizontal=1;startSize=30;horizontalStack=0;resizeParent=1;resizeParentMax=0;resizeLast=0;collapsible=1;marginBottom=0;whiteSpace=wrap;html=1;" parent="1" vertex="1">
          <mxGeometry x="480" y="320" width="140" height="180" as="geometry" />
        </mxCell>
        <mxCell id="jQtlUSDWuj2KYqsU9cgf-17" value="证券交易所" style="text;strokeColor=none;fillColor=none;align=left;verticalAlign=middle;spacingLeft=4;spacingRight=4;overflow=hidden;points=[[0,0.5],[1,0.5]];portConstraint=eastwest;rotatable=0;whiteSpace=wrap;html=1;" parent="jQtlUSDWuj2KYqsU9cgf-16" vertex="1">
          <mxGeometry y="30" width="140" height="30" as="geometry" />
        </mxCell>
        <mxCell id="jQtlUSDWuj2KYqsU9cgf-18" value="上市公司" style="text;strokeColor=none;fillColor=none;align=left;verticalAlign=middle;spacingLeft=4;spacingRight=4;overflow=hidden;points=[[0,0.5],[1,0.5]];portConstraint=eastwest;rotatable=0;whiteSpace=wrap;html=1;" parent="jQtlUSDWuj2KYqsU9cgf-16" vertex="1">
          <mxGeometry y="60" width="140" height="30" as="geometry" />
        </mxCell>
        <mxCell id="jQtlUSDWuj2KYqsU9cgf-19" value="券商" style="text;strokeColor=none;fillColor=none;align=left;verticalAlign=middle;spacingLeft=4;spacingRight=4;overflow=hidden;points=[[0,0.5],[1,0.5]];portConstraint=eastwest;rotatable=0;whiteSpace=wrap;html=1;" parent="jQtlUSDWuj2KYqsU9cgf-16" vertex="1">
          <mxGeometry y="90" width="140" height="30" as="geometry" />
        </mxCell>
        <mxCell id="jQtlUSDWuj2KYqsU9cgf-20" value="证监会（银保监会）" style="text;strokeColor=none;fillColor=none;align=left;verticalAlign=middle;spacingLeft=4;spacingRight=4;overflow=hidden;points=[[0,0.5],[1,0.5]];portConstraint=eastwest;rotatable=0;whiteSpace=wrap;html=1;" parent="jQtlUSDWuj2KYqsU9cgf-16" vertex="1">
          <mxGeometry y="120" width="140" height="30" as="geometry" />
        </mxCell>
        <mxCell id="jQtlUSDWuj2KYqsU9cgf-21" value="投资人" style="text;strokeColor=none;fillColor=none;align=left;verticalAlign=middle;spacingLeft=4;spacingRight=4;overflow=hidden;points=[[0,0.5],[1,0.5]];portConstraint=eastwest;rotatable=0;whiteSpace=wrap;html=1;" parent="jQtlUSDWuj2KYqsU9cgf-16" vertex="1">
          <mxGeometry y="150" width="140" height="30" as="geometry" />
        </mxCell>
        <mxCell id="jQtlUSDWuj2KYqsU9cgf-23" value="投资人" style="swimlane;fontStyle=0;childLayout=stackLayout;horizontal=1;startSize=30;horizontalStack=0;resizeParent=1;resizeParentMax=0;resizeLast=0;collapsible=1;marginBottom=0;whiteSpace=wrap;html=1;" parent="1" vertex="1">
          <mxGeometry x="686" y="440" width="140" height="90" as="geometry" />
        </mxCell>
        <mxCell id="jQtlUSDWuj2KYqsU9cgf-24" value="机构投资人" style="text;strokeColor=none;fillColor=none;align=left;verticalAlign=middle;spacingLeft=4;spacingRight=4;overflow=hidden;points=[[0,0.5],[1,0.5]];portConstraint=eastwest;rotatable=0;whiteSpace=wrap;html=1;" parent="jQtlUSDWuj2KYqsU9cgf-23" vertex="1">
          <mxGeometry y="30" width="140" height="30" as="geometry" />
        </mxCell>
        <mxCell id="jQtlUSDWuj2KYqsU9cgf-25" value="个人投资人（散户）" style="text;strokeColor=none;fillColor=none;align=left;verticalAlign=middle;spacingLeft=4;spacingRight=4;overflow=hidden;points=[[0,0.5],[1,0.5]];portConstraint=eastwest;rotatable=0;whiteSpace=wrap;html=1;" parent="jQtlUSDWuj2KYqsU9cgf-23" vertex="1">
          <mxGeometry y="60" width="140" height="30" as="geometry" />
        </mxCell>
        <mxCell id="jQtlUSDWuj2KYqsU9cgf-28" style="edgeStyle=orthogonalEdgeStyle;rounded=0;orthogonalLoop=1;jettySize=auto;html=1;entryX=0;entryY=0.5;entryDx=0;entryDy=0;" parent="1" source="jQtlUSDWuj2KYqsU9cgf-21" target="jQtlUSDWuj2KYqsU9cgf-24" edge="1">
          <mxGeometry relative="1" as="geometry" />
        </mxCell>
        <mxCell id="jQtlUSDWuj2KYqsU9cgf-29" value="股票交易过程" style="swimlane;childLayout=stackLayout;resizeParent=1;resizeParentMax=0;startSize=20;html=1;" parent="1" vertex="1">
          <mxGeometry x="40" y="760" width="909.9999999999995" height="1040" as="geometry" />
        </mxCell>
        <mxCell id="jQtlUSDWuj2KYqsU9cgf-30" value="投资人" style="swimlane;startSize=20;html=1;" parent="jQtlUSDWuj2KYqsU9cgf-29" vertex="1">
          <mxGeometry y="20" width="120" height="1020" as="geometry" />
        </mxCell>
        <mxCell id="jQtlUSDWuj2KYqsU9cgf-53" value="原始股东" style="shape=umlActor;verticalLabelPosition=bottom;verticalAlign=top;html=1;outlineConnect=0;" parent="jQtlUSDWuj2KYqsU9cgf-30" vertex="1">
          <mxGeometry x="19.999999999999545" y="70" width="30" height="60" as="geometry" />
        </mxCell>
        <mxCell id="jQtlUSDWuj2KYqsU9cgf-57" style="edgeStyle=orthogonalEdgeStyle;rounded=0;orthogonalLoop=1;jettySize=auto;html=1;" parent="jQtlUSDWuj2KYqsU9cgf-30" source="jQtlUSDWuj2KYqsU9cgf-54" edge="1">
          <mxGeometry relative="1" as="geometry">
            <mxPoint x="210" y="393" as="targetPoint" />
          </mxGeometry>
        </mxCell>
        <mxCell id="jQtlUSDWuj2KYqsU9cgf-63" value="讨价还价" style="edgeLabel;html=1;align=center;verticalAlign=middle;resizable=0;points=[];" parent="jQtlUSDWuj2KYqsU9cgf-57" vertex="1" connectable="0">
          <mxGeometry x="0.0603" relative="1" as="geometry">
            <mxPoint x="1" as="offset" />
          </mxGeometry>
        </mxCell>
        <mxCell id="jQtlUSDWuj2KYqsU9cgf-54" value="机构投资者" style="shape=umlActor;verticalLabelPosition=bottom;verticalAlign=top;html=1;outlineConnect=0;" parent="jQtlUSDWuj2KYqsU9cgf-30" vertex="1">
          <mxGeometry x="22.999999999999545" y="363" width="30" height="60" as="geometry" />
        </mxCell>
        <mxCell id="jQtlUSDWuj2KYqsU9cgf-62" value="散户投资者" style="shape=umlActor;verticalLabelPosition=bottom;verticalAlign=top;html=1;outlineConnect=0;" parent="jQtlUSDWuj2KYqsU9cgf-30" vertex="1">
          <mxGeometry x="23" y="640" width="30" height="60" as="geometry" />
        </mxCell>
        <mxCell id="jQtlUSDWuj2KYqsU9cgf-31" value="上市公司" style="swimlane;startSize=20;html=1;" parent="jQtlUSDWuj2KYqsU9cgf-29" vertex="1">
          <mxGeometry x="120" y="20" width="160" height="1020" as="geometry" />
        </mxCell>
        <mxCell id="jQtlUSDWuj2KYqsU9cgf-36" value="准备上市" style="strokeWidth=2;html=1;shape=mxgraph.flowchart.start_2;whiteSpace=wrap;" parent="jQtlUSDWuj2KYqsU9cgf-31" vertex="1">
          <mxGeometry x="20" y="30" width="50" height="50" as="geometry" />
        </mxCell>
        <mxCell id="jQtlUSDWuj2KYqsU9cgf-56" style="edgeStyle=orthogonalEdgeStyle;rounded=0;orthogonalLoop=1;jettySize=auto;html=1;" parent="jQtlUSDWuj2KYqsU9cgf-31" source="jQtlUSDWuj2KYqsU9cgf-55" edge="1">
          <mxGeometry relative="1" as="geometry">
            <mxPoint x="-50" y="380" as="targetPoint" />
          </mxGeometry>
        </mxCell>
        <mxCell id="jQtlUSDWuj2KYqsU9cgf-32" value="券商" style="swimlane;startSize=20;html=1;" parent="jQtlUSDWuj2KYqsU9cgf-29" vertex="1">
          <mxGeometry x="280" y="20" width="200" height="1020" as="geometry" />
        </mxCell>
        <mxCell id="jQtlUSDWuj2KYqsU9cgf-44" value="" style="edgeStyle=orthogonalEdgeStyle;rounded=0;orthogonalLoop=1;jettySize=auto;html=1;" parent="jQtlUSDWuj2KYqsU9cgf-32" source="jQtlUSDWuj2KYqsU9cgf-41" target="jQtlUSDWuj2KYqsU9cgf-43" edge="1">
          <mxGeometry relative="1" as="geometry" />
        </mxCell>
        <mxCell id="jQtlUSDWuj2KYqsU9cgf-41" value="承销与分销" style="whiteSpace=wrap;html=1;strokeWidth=2;" parent="jQtlUSDWuj2KYqsU9cgf-32" vertex="1">
          <mxGeometry x="25" y="25" width="120" height="60" as="geometry" />
        </mxCell>
        <mxCell id="jQtlUSDWuj2KYqsU9cgf-43" value="顾问服务&lt;div&gt;（法律与财务）&lt;/div&gt;" style="whiteSpace=wrap;html=1;strokeWidth=2;" parent="jQtlUSDWuj2KYqsU9cgf-32" vertex="1">
          <mxGeometry x="25" y="165" width="120" height="60" as="geometry" />
        </mxCell>
        <mxCell id="jQtlUSDWuj2KYqsU9cgf-55" value="路演&lt;div&gt;（向机构投资者推介股票，确定发行价）&lt;/div&gt;" style="rounded=0;whiteSpace=wrap;html=1;" parent="jQtlUSDWuj2KYqsU9cgf-32" vertex="1">
          <mxGeometry x="-60" y="350" width="120" height="60" as="geometry" />
        </mxCell>
        <mxCell id="jQtlUSDWuj2KYqsU9cgf-34" value="证券交易所" style="swimlane;startSize=20;html=1;" parent="jQtlUSDWuj2KYqsU9cgf-29" vertex="1">
          <mxGeometry x="480" y="20" width="190" height="1020" as="geometry" />
        </mxCell>
        <mxCell id="jQtlUSDWuj2KYqsU9cgf-50" value="" style="edgeStyle=orthogonalEdgeStyle;rounded=0;orthogonalLoop=1;jettySize=auto;html=1;" parent="jQtlUSDWuj2KYqsU9cgf-34" source="jQtlUSDWuj2KYqsU9cgf-47" target="jQtlUSDWuj2KYqsU9cgf-49" edge="1">
          <mxGeometry relative="1" as="geometry" />
        </mxCell>
        <mxCell id="jQtlUSDWuj2KYqsU9cgf-47" value="审核与批准" style="whiteSpace=wrap;html=1;strokeWidth=2;" parent="jQtlUSDWuj2KYqsU9cgf-34" vertex="1">
          <mxGeometry x="46" y="165" width="120" height="60" as="geometry" />
        </mxCell>
        <mxCell id="jQtlUSDWuj2KYqsU9cgf-59" value="" style="edgeStyle=orthogonalEdgeStyle;rounded=0;orthogonalLoop=1;jettySize=auto;html=1;" parent="jQtlUSDWuj2KYqsU9cgf-34" source="jQtlUSDWuj2KYqsU9cgf-49" target="jQtlUSDWuj2KYqsU9cgf-58" edge="1">
          <mxGeometry relative="1" as="geometry" />
        </mxCell>
        <mxCell id="jQtlUSDWuj2KYqsU9cgf-49" value="交易支持&lt;div&gt;（提供交易平台，让股票在市场上自由买卖）&lt;/div&gt;" style="whiteSpace=wrap;html=1;strokeWidth=2;" parent="jQtlUSDWuj2KYqsU9cgf-34" vertex="1">
          <mxGeometry x="46" y="305" width="120" height="60" as="geometry" />
        </mxCell>
        <mxCell id="jQtlUSDWuj2KYqsU9cgf-61" value="" style="edgeStyle=orthogonalEdgeStyle;rounded=0;orthogonalLoop=1;jettySize=auto;html=1;" parent="jQtlUSDWuj2KYqsU9cgf-34" source="jQtlUSDWuj2KYqsU9cgf-58" target="jQtlUSDWuj2KYqsU9cgf-60" edge="1">
          <mxGeometry relative="1" as="geometry" />
        </mxCell>
        <mxCell id="jQtlUSDWuj2KYqsU9cgf-58" value="挂牌交易&lt;div&gt;(完成股票代码分配，正式开放二级市场交易)&lt;/div&gt;" style="whiteSpace=wrap;html=1;strokeWidth=2;" parent="jQtlUSDWuj2KYqsU9cgf-34" vertex="1">
          <mxGeometry x="30" y="445" width="150" height="60" as="geometry" />
        </mxCell>
        <mxCell id="jQtlUSDWuj2KYqsU9cgf-60" value="撮合交易&lt;br&gt;&lt;div&gt;（匹配买卖订单，实时更新价格和成交量）&lt;/div&gt;" style="whiteSpace=wrap;html=1;strokeWidth=2;" parent="jQtlUSDWuj2KYqsU9cgf-34" vertex="1">
          <mxGeometry x="30" y="585" width="150" height="60" as="geometry" />
        </mxCell>
        <mxCell id="jQtlUSDWuj2KYqsU9cgf-35" value="证监会" style="swimlane;startSize=20;html=1;" parent="jQtlUSDWuj2KYqsU9cgf-29" vertex="1">
          <mxGeometry x="670" y="20" width="239.99999999999955" height="1020" as="geometry" />
        </mxCell>
        <mxCell id="jQtlUSDWuj2KYqsU9cgf-51" value="" style="strokeWidth=2;html=1;shape=mxgraph.flowchart.annotation_2;align=left;labelPosition=right;pointerEvents=1;rotation=-180;" parent="jQtlUSDWuj2KYqsU9cgf-35" vertex="1">
          <mxGeometry x="23" y="50" width="50" height="575" as="geometry" />
        </mxCell>
        <mxCell id="jQtlUSDWuj2KYqsU9cgf-52" value="&lt;h1 style=&quot;margin-top: 0px;&quot;&gt;监督&lt;/h1&gt;&lt;p&gt;确保信息披露的真实性、准确性和完整性，并保护投资者的权益&lt;/p&gt;" style="text;html=1;whiteSpace=wrap;overflow=hidden;rounded=0;" parent="jQtlUSDWuj2KYqsU9cgf-35" vertex="1">
          <mxGeometry x="53.999999999999545" y="300" width="180" height="120" as="geometry" />
        </mxCell>
        <mxCell id="jQtlUSDWuj2KYqsU9cgf-42" value="" style="edgeStyle=orthogonalEdgeStyle;rounded=0;orthogonalLoop=1;jettySize=auto;html=1;" parent="jQtlUSDWuj2KYqsU9cgf-29" source="jQtlUSDWuj2KYqsU9cgf-36" target="jQtlUSDWuj2KYqsU9cgf-41" edge="1">
          <mxGeometry relative="1" as="geometry" />
        </mxCell>
        <mxCell id="jQtlUSDWuj2KYqsU9cgf-48" style="edgeStyle=orthogonalEdgeStyle;rounded=0;orthogonalLoop=1;jettySize=auto;html=1;entryX=0;entryY=0.5;entryDx=0;entryDy=0;" parent="jQtlUSDWuj2KYqsU9cgf-29" source="jQtlUSDWuj2KYqsU9cgf-43" target="jQtlUSDWuj2KYqsU9cgf-47" edge="1">
          <mxGeometry relative="1" as="geometry" />
        </mxCell>
        <mxCell id="jQtlUSDWuj2KYqsU9cgf-37" value="待上市公司准备上市todo list" style="swimlane;fontStyle=0;childLayout=stackLayout;horizontal=1;startSize=26;fillColor=none;horizontalStack=0;resizeParent=1;resizeParentMax=0;resizeLast=0;collapsible=1;marginBottom=0;html=1;" parent="1" vertex="1">
          <mxGeometry x="1000" y="720" width="200" height="104" as="geometry" />
        </mxCell>
        <mxCell id="jQtlUSDWuj2KYqsU9cgf-38" value="设立股份有限公司" style="text;strokeColor=none;fillColor=none;align=left;verticalAlign=top;spacingLeft=4;spacingRight=4;overflow=hidden;rotatable=0;points=[[0,0.5],[1,0.5]];portConstraint=eastwest;whiteSpace=wrap;html=1;" parent="jQtlUSDWuj2KYqsU9cgf-37" vertex="1">
          <mxGeometry y="26" width="200" height="26" as="geometry" />
        </mxCell>
        <mxCell id="jQtlUSDWuj2KYqsU9cgf-39" value="审计财务报表" style="text;strokeColor=none;fillColor=none;align=left;verticalAlign=top;spacingLeft=4;spacingRight=4;overflow=hidden;rotatable=0;points=[[0,0.5],[1,0.5]];portConstraint=eastwest;whiteSpace=wrap;html=1;" parent="jQtlUSDWuj2KYqsU9cgf-37" vertex="1">
          <mxGeometry y="52" width="200" height="26" as="geometry" />
        </mxCell>
        <mxCell id="jQtlUSDWuj2KYqsU9cgf-40" value="制定业务发展规划" style="text;strokeColor=none;fillColor=none;align=left;verticalAlign=top;spacingLeft=4;spacingRight=4;overflow=hidden;rotatable=0;points=[[0,0.5],[1,0.5]];portConstraint=eastwest;whiteSpace=wrap;html=1;" parent="jQtlUSDWuj2KYqsU9cgf-37" vertex="1">
          <mxGeometry y="78" width="200" height="26" as="geometry" />
        </mxCell>
        <mxCell id="jQtlUSDWuj2KYqsU9cgf-64" value="一级市场&amp;amp;二级市场" style="swimlane;fontStyle=0;childLayout=stackLayout;horizontal=1;startSize=30;horizontalStack=0;resizeParent=1;resizeParentMax=0;resizeLast=0;collapsible=1;marginBottom=0;whiteSpace=wrap;html=1;" parent="1" vertex="1">
          <mxGeometry x="1000" y="920" width="290" height="170" as="geometry" />
        </mxCell>
        <mxCell id="jQtlUSDWuj2KYqsU9cgf-65" value="一级市场（primary Market）：发行市场，是新证券首次出售给公众的市场。" style="text;strokeColor=none;fillColor=none;align=left;verticalAlign=middle;spacingLeft=4;spacingRight=4;overflow=hidden;points=[[0,0.5],[1,0.5]];portConstraint=eastwest;rotatable=0;whiteSpace=wrap;html=1;" parent="jQtlUSDWuj2KYqsU9cgf-64" vertex="1">
          <mxGeometry y="30" width="290" height="30" as="geometry" />
        </mxCell>
        <mxCell id="jQtlUSDWuj2KYqsU9cgf-66" value="首次公开募股（IPO）或增发新股都属于一级市场" style="text;strokeColor=none;fillColor=none;align=left;verticalAlign=middle;spacingLeft=4;spacingRight=4;overflow=hidden;points=[[0,0.5],[1,0.5]];portConstraint=eastwest;rotatable=0;whiteSpace=wrap;html=1;" parent="jQtlUSDWuj2KYqsU9cgf-64" vertex="1">
          <mxGeometry y="60" width="290" height="30" as="geometry" />
        </mxCell>
        <mxCell id="jQtlUSDWuj2KYqsU9cgf-67" value="认购新股，机构和个人都可以参与" style="text;strokeColor=none;fillColor=none;align=left;verticalAlign=middle;spacingLeft=4;spacingRight=4;overflow=hidden;points=[[0,0.5],[1,0.5]];portConstraint=eastwest;rotatable=0;whiteSpace=wrap;html=1;" parent="jQtlUSDWuj2KYqsU9cgf-64" vertex="1">
          <mxGeometry y="90" width="290" height="30" as="geometry" />
        </mxCell>
        <mxCell id="jQtlUSDWuj2KYqsU9cgf-68" value="二级市场（Secondary Market）：投资者之间自由交易已发行的股票，交易所提供流动性，价格由供需决定" style="text;strokeColor=none;fillColor=none;align=left;verticalAlign=middle;spacingLeft=4;spacingRight=4;overflow=hidden;points=[[0,0.5],[1,0.5]];portConstraint=eastwest;rotatable=0;whiteSpace=wrap;html=1;" parent="jQtlUSDWuj2KYqsU9cgf-64" vertex="1">
          <mxGeometry y="120" width="290" height="50" as="geometry" />
        </mxCell>
        <mxCell id="jQtlUSDWuj2KYqsU9cgf-69" value="投资者通过股票获利的方式" style="swimlane;fontStyle=0;childLayout=stackLayout;horizontal=1;startSize=26;fillColor=none;horizontalStack=0;resizeParent=1;resizeParentMax=0;resizeLast=0;collapsible=1;marginBottom=0;html=1;" parent="1" vertex="1">
          <mxGeometry x="1000" y="1160" width="190" height="78" as="geometry" />
        </mxCell>
        <mxCell id="jQtlUSDWuj2KYqsU9cgf-70" value="股息收入" style="text;strokeColor=none;fillColor=none;align=left;verticalAlign=top;spacingLeft=4;spacingRight=4;overflow=hidden;rotatable=0;points=[[0,0.5],[1,0.5]];portConstraint=eastwest;whiteSpace=wrap;html=1;" parent="jQtlUSDWuj2KYqsU9cgf-69" vertex="1">
          <mxGeometry y="26" width="190" height="26" as="geometry" />
        </mxCell>
        <mxCell id="jQtlUSDWuj2KYqsU9cgf-71" value="赚差价" style="text;strokeColor=none;fillColor=none;align=left;verticalAlign=top;spacingLeft=4;spacingRight=4;overflow=hidden;rotatable=0;points=[[0,0.5],[1,0.5]];portConstraint=eastwest;whiteSpace=wrap;html=1;" parent="jQtlUSDWuj2KYqsU9cgf-69" vertex="1">
          <mxGeometry y="52" width="190" height="26" as="geometry" />
        </mxCell>
        <mxCell id="jQtlUSDWuj2KYqsU9cgf-73" value="" style="shape=image;verticalLabelPosition=bottom;labelBackgroundColor=default;verticalAlign=top;aspect=fixed;imageAspect=0;image=data:image/png,iVBORw0KGgoAAAANSUhEUgAAAgAAAAIACAYAAAD0eNT6AAAAAXNSR0IArs4c6QAAIABJREFUeAHt3enXZVdV7/H1RrzXa0Ni3/eKaen7PgFF5XptsO9IFK+3eQ1VIRD6LvUkJQwcvhFpKgiIiIiIISAiIlUgYsgr/woJL4sx71hVcXhNrH2e7HnOmXvt81ljzBd59jPXXus7597zd9Z5UrM1AwEEEEAAAQQQQAABBBBAAAEEEEAAAQQQQAABBBBAAAEEEEAAAQQQQAABBBBAAAEEEEAAAQQQQAABBBBAAAEEEEAAAQQQQAABBBBAAAEEEEAAAQQQQAABBBBAAAEEEEAAAQQQQAABBBBAAAEEEEAAAQQQQAABBBBAAAEEEEAAAQQQQAABBBBAAAEEEEAAAQQQQAABBBBAAAEEEEAAAQQQQAABBBBAAAEEEEAAAQQQQAABBBBAAAEEEEAAAQQQQAABBBBAAAEEEEAAAQQQQAABBBBAAAEEEEAAAQQQQAABBBBAAAEEEEAAAQQQQAABBBBAAAEEEEAAAQQQQAABBBBAAAEEEEAAAQQQQAABBBBAAAEEEEAAAQQQQAABBBBAAAEEEEAAAQQQQAABBBBAAAEEEEAAAQQQQAABBBBAAAEEEEAAAQQQQAABBBBAAAEEEEAAAQQQQAABBBBAAAEEEEAAAQQQQAABBBBAAAEEEEAAAQQQQAABBBBAAAEEEEAAAQQQQAABBBBAAAEEEEAAAQQQQAABBBBAAAEEEEAAAQQQQAABBBBAAAEEEEAAAQQQQAABBBBAAAEEEEAAAQQQQAABBBBAAAEEEEAAAQQQQAABBBBAAAEEEEAAAQQQQAABBBBA4LAI/PPpaBk7LFp2iwACCCCAwEoIZIp/9zUQQAABBBBAYEACBMCAQbNkBBBAAAEEsgQ+fzpaxrL3548AAggggAACBQQyxb/7GggggAACCCAwIAECYMCgWTICCCCAAAJZAp+/PVrGsvfnjwACCCCAAAIFBDLFv/saCCCAAAIIIDAgAQJgwKBZMgIIIIAAAlkC/3R7tIxl788fAQQQQAABBAoIZIp/9zUQQAABBBBAYEACBMCAQbNkBBBAAAEEsgQIgCxB/ggggAACCAxIgAAYMGiWjAACCCCAQJYAAZAlyB8BBBBAAIEBCXzu9mgZG3DLlowAAggggAACmeLffQ0EEEAAAQQQGJAAATBg0CwZAQQQQACBLIHP3RYtY9n780cAAQQQQACBAgKZ4t99DQQQQAABBBAYkAABMGDQLBkBBBBAAIEsAQIgS5A/AggggAACAxL4x9uiZWzALVsyAggggAACCGSKf/c1EEAAAQQQQGBAAgTAgEGzZAQQQAABBLIECIAsQf4IIIAAAggMSIAAGDBolowAAggggECWAAGQJcgfAQQQQACBAQl89rZoGRtwy5aMAAIIIIAAApni330NBBBAAAEEEBiQAAEwYNAsGQEEEEAAgSyBzx5Fy1j2/vwRQAABBBBAoIBApvh3XwMBBBBAAAEEBiRAAAwYNEtGAAEEEEAgS+AzR9Eylr0/fwQQQAABBBAoIJAp/t3XQAABBBBAAIEBCRAAAwbNkhFAAAEEEMgSIACyBPkjgAACCCAwIAECYMCgWTICCCCAAAJZAgRAliB/BBBAAAEEjkHgM0dXt7NHp9u5oy+0c0dfaueOgqUYdIZfaJ85ur2dO33VMSLgVxBAAAEEENgjgX/5va9sZ297czt39GUFP1XwpwTT+Xbu1JvaPbc8ZI+RdSsEEEAAAQQuQaAX/3NHH1X4d1b4/6MoOHt0FxFwiVz0YwQQQACBPRI4d+vvt3Ongu2VwRv3GGG3QgABBBBA4H4E+nf+5059WfHfa/HvYut8O3t05f2i4T8RQAABBBDYE4Gzp04r/nsv/vedthwd7SnKboMAAggggMD9CJw9dU87eypYCYO77xcN/4kAAggggMCeCHz61L2Kf0nx76Lri3uKstsggMAsAv98OlrGZt2UEwJ7IuDTf+3px57C7DYIIDCHQKb4d18DgSUTIAAIgCXnp7UhUEqAACjF7+Y7JkAAEAA7TjHTIzAugc+fjpaxcXdu5YdAgAAgAA4hz+0RgVkEMsW/+xoILJnAp09FY3UMlpwb1obAwRMgAA4+BVYNQPGvK/6dvYEAAgsm8Pnbo2VswVuzNAR8+i8+AZGCCCCwYAKZ4t99DQSWTODTt0ZjdQyWnBvWhsDBEyAADj4FVg1A8a8r/p29gQACCybwT7dHy9iCt2ZpCPj0X3wCIgURQGDBBDLFv/saCCyZwD/cGo3VMVhyblgbAgdPgAA4+BRYNQDFv674d/YGAggsmAABsODgWFqaAAFAAKSTyAQIrJUAAbDWyNpXJ0AAEACeBAQQuAQBAuASYPx4FQQIAAJgFYlsEwjsgsDnbo+WsV2syZwIbIsAAUAAbCuXzIPA6ghkin/3NRBYMgECgABYcn5aGwKlBAiAUvxuvmMCn7o1GqtjsOPwmh4BBDIEPndbtIxl7s0XgV0TUPzrin9nbyCAwIIJZIp/9zUQWDIBAoAAWHJ+WhsCpQQIgFL8br5jAp96QzRWx2DH4TU9AghkCBAAGXp8l05A8a8r/p29gQACCybwj7dFy9iCt2ZpCPj0X3wCIgURQGDBBDLFv/saCCyZwN+/IRqrY7Dk3LA2BA6eAAFw8CmwagCKf13x7+wNBBBYMAECYMHBsbQ0AQKAAEgnkQkQWCsBAmCtkbWvToAAIAA8CQggcAkCBMAlwPjxKggQAATAKhLZJhDYBYHP3hYtY7tYkzkR2BYBAoAA2FYumQeB1RHIFP/uayCwZAKffEM0VsdgyblhbQgcPAEC4OBTYNUAFP+64t/ZGwggsGACnz2KlrEFb83SEPDpv/gERAoigMCCCWSKf/c1EFgygU++PhqrY7Dk3LA2BA6eAAFw8CmwagCKf13x7+wNBBBYMIHPHEXL2IK3ZmkI+PRffAIiBRFAYMEEMsW/+xoILJnA370+GqtjsOTcsDYEDp4AAXDwKbBqAIp/XfHv7A0EEFgwAQJgwcGxtDQBAoAASCeRCRBYKwECYK2Rta9OgAAgADwJCCBwCQIEwCXA+PEqCBAABMAqEtkm1kHgM0dXt7NHp9u5oy+0c0dfaueOgqUYdIZfaJ85ur2dO33VOpLELrZGgAAgALaWTA+cKJ77fyJjD5zRT9ZJ4F9+7yvb2dve3M4dfVnBTxX8KcF0vp079aZ2zy0PWWcS2dWDJvCJ10djdQwedMDGcsgU/+471m6tdh6BXvzPHX1U4d9Z4f+PouDs0V1EwLxUXZ2X4l9X/Dv7lY/4yf8dGVs5Htu7QODcrb/fzp0KtlcGb5R9CPj0X3wCsvIUzBT/7rtyPLbX+nf+5059WfHfa/HvYut8O3t0pQw8cAKfeF00Vsdg5elHAKw8wOntnT11WvHfe/G/77Tl6CgdPxOMTUDxryv+nf3KBwGw8gCnt3f21D3t7KlgJQzuTsfPBGMTIAAIgB1mMAGwQ7irmPrTp+5V/EuKfxddX1xFDtnEfAJ/+7porI7B/MgN4Rk/8b8iY0Ns0iITBHz6rz39SISO6woIKP51xb+zX/nIFP/uu3I8tufTf9mn/4vCQwoeNgECgADY4RNAAOwQ7iqmdgLgBGAViTzoJggAAmCHqUsA7BDuKqYmAAiAVSTyoJsgAAiAHaZu/MTvRsZ2uDRTL4LAp09FY3UMFpEEFlFGgAAgAHaYfPHjvxsZ2+HSTL0IAop/XfHv7I3DJkAAEAA7fAIyxb/77nBppl4EAQKAAFhEIh7oIj7+umisjsHK044AWHmA09v79K3RWB2DdABNMDQBxb+u+Hf2Kx8EwMoDnN6e4l9X/Dv7lQ/tSDcEmAAgADakSOZyPOd/RsYy9+Y7AgECgADYYZ4SABvgfvy10Vgdgw3hGf1ypvh339H3b/2bCPzDrdFYHYNN8Rn8un+LfEMAFf+64t/Zr3wQACsPcHp7in9d8e/sVz4IgA0BJgAIgA0pkrlMAGToHYIvAUAA7DDPCYANcP/mtdFYHYMN4Rn9cjzndyJjo+/f+jcRIAAIgE05krhOAGyAp/jXFf/OfuUjfux3ImMrx2N7vv8v/huIlacgAbAhwAQAAbAhRTKXM8W/+2buzXcEAk4AnADsME81I9kAlwAgADakSOYyAZChdwi+BAABsMM8JwA2wCUACIANKZK5TABk6B2C76dujcbqGKw8xwiADQEmAAiADSmSuRw/9oLIWObefEcgoPjXFf/OfuWDANgQ4I+9NhqrY7AhPKNfjh99QWRs9P1b/yYCBAABsClHEtczvci7b+LWY7gq/nXFv7Nf+cgU/+67cjy21z71hmCFDFaegpqRbAgwAUAAbEiRzGUCIEPvEHwJgFoBtPIcIwA2BPhjr4nG6hhsCM/ol+NHfzsyNvr+rX8TAQKAANiUI4nrBMAGeIp/XfHv7Fc+4tm/HRlbOR7ba3//hmCFDFaeggTAhgATAATAhhTJXM4U/+6buTffEQgQALUCaIQcSaxRM5IN8D76mmisjsGG8Ix+mQAYPYK7Xj8BQADsMMcIgA1wFf+64t/Zr3wQACsPcHp7BAABkE6iS09AAFyazYUrBAABsCFFMpfj2b8VGcvcm+8IBAgAAmCHeUoAbIBLABAAG1Ikczme9VuRscy9+Y5AgAAgAHaYp5le5N13h0tbxtQEAAGww0zMFP/uu8OlmXoRBD75hmisjsEikmB3i9CMZANbAoAA2JAimcsEQIbeIfgq/nXFv7Nf+SAANgT4rtdEY3UMNoRn9MvxrBsjY6Pv3/o3ESAACIBNOZK4TgBsgKf41xX/zn7lI66/MTK2cjy21z75+mCFDFaeggTAhgATAKsSAHH9b14dz7rhdDzrxi/E9Td+KVN8+V4QL1+6wPK6G2+PZ9941YanyeUHTYAAqBVADzpgYzlkepF337F2O2O1d706GqtjMCNk/5lLPOf/fmVcf+Ob4/obv6xw504dJvidj+tueFM873kP+c9i4GdzCBAABMCcvDmmj25kG0Ap/nXFv7Pfwriv+H90onCljuHNez9Bcd0NdxEBW0jcC1P83eujsToG24rjQuchADYEhgAYXwBcf8Pvx/U3BNsng+e/ccOT5fKxCCj+dcW/s1/5IAA2BPgjr47G6hhsCM+myxe+87/uhi/HdTcE2yuD8/GM375yU3xc30SAACAANuVI4nqmF3n3Tdx6DFfFv674d/bJEdfdcFrh32vh/3eh9cwbj5Lh4+74v/grkJWnoGYkGwJMAIwuAO4hAKoEwA13b3i6XN5IwAmAE4CNSTL/FwiADewIgMEFwPPvjeueH6yEwRc3PF0ubyRAABAAG5Nk/i8QABvYEQCjCwDFv1AAbXi6XN5I4BOvj8bqGGwM0Ni/QABsiB8BMLYAeObzI1gZgw1Pl8sbCSj+dcW/s1/5yPQi774rx9Pana8OVsggmWCKf60ASoaPu0//xScgK09B3cg2BJgAqBVAG8Kz6TIBQABsypFlX//E66KxOgbLzo706giADQgJgMEFwG9GPJNVMdjwdLm8kYDiX1f8O/uVDwJgQ4AJgLEFwDN+M4KVMdjwdLm8kQABQABsTJL5v5DpRd595995EM87XxWN1TFIponiXyuAkuHj3v72dcEKGaw8BbONTFaOpyn+xQIomWAEAAGQTKFidwKgVgBtOfz6kd+vc9j16f/ebT9yn/7rPv139skRz/iNYHUMkuHj7tN/4af/Lr62NPQjTxf647Rs3X4/8r9+VTRWxyD5/Cn+dcW/s0+GjzsBML4A0I98L8X/3wXCNvuRK/51xb+zT454+m8Eq2OQDB93AmAFAkA/8oJe7FvqR04AEABExGwRpYJnCfgbgKH/BkA/8qJOZNfdsJ1+5AQAAUAAEADZOj7bnwAYWwDoR/7v/cGv27MY2EY/cgJgcAHw6xFPZ1UMZtc9jvcR+PjrorE6BslEjOtu0I9834X/3+73zC30IycACAACYraISr4+uSv+xQIomYJxnX7khb3Y8/3IP/yqaKyOQfb5e9qvR7AyBsnwcScAhhcA+pGP3I9c8a8r/p19cij+tQIoGT7u7eOvDVbIIJmCupEN3o2MABhcAPxaxNNYFYPk65O74l9Y/Lv4Sg4CYHQB8MpoH2ZlDLLPn+JfKoCS4eNOABAARMR8EZF+gyj+tQIoGcB46q8Fq2OQDB/39jevDVbIIJmCVX243fdiD/hk+FrZJ1/C46LwSAZQ8a8r/p19MnzcFf/C4t/FV3LoRjZ4N7K/emU0Vscg+/w5ASg9AUmGjzsBQAAQEfNFRPoNovjXFf/OPjniqb8arI5BMnzcCQACgAAgAA72FCJZAhT/uuLf2SfDx50AGF0A1LbjPPR2qOk3iBOAsU8AnvKrEayMQfr5O/gJ/BFg7R9BJhPw0Atw9f6T4WsH+8l7KcInGUDFv1YAJcPHvX3stcEKGSRTUC/yul7knX0yfARAtRBIBjCe8ivB6hgkw8dd8S8s/l18JQcBMLgA+NAro7E6BtnnjwAoFUDJ8HEnAAgAImK+iEi/QRT/uuLf2SeHT/91n/47+2T4uLePvSZYIYNkClb14Xbfiz3gk+FrPv0Xn4AkAxhP/pVgdQyS4eOu+BcW/y6+kkMhvliIqzgkw9fah14RrJBBMoCKf13x7+yT4eNOAAwuAPQiL+tF3lvBpt8gBECtAEoGMJ78y8HqGCTDx7199DXBChkkU1A/8sH7kRMABAARMVtEJV+f3BX/wuLfxVdyVPXhdt+LPeCT4WvtL18RrJBBMoDxpF8OVscgGT7uBAABoJhfLOZzOKTfIARArQBKBlDxryv+nX0yfNwJgMEFgG5kY3cjIwAGFwC/FPEkVsVABc8S8DcAtX8DkYyffuSD9yMnAAgAAmK2iEq+Prk7AXACQETMFxHpNwgBQAAQAARA+kUyd4K7XhON1TGYG7f7/LQjHbwdKQEwtgB44i9FsDIGydcnd8W/WAAlU5AAGFwAfPAV0Vgdg+zzp/iXFf8uvJLh404ADC4A9CIv60XeW8Gm3yCKf13x7+yTI574i8HqGCTDx73d9epghQySKagf+eD9yAkAAoCImC2ikq9P7op/YfHv4is5dCMbvBvZB18ejdUxyD5/T/jFCFbGIBk+7gQAAUBEzBcR6TeI4l9X/Dv75FD8awVQMnzc20deHayQQTIFFe/5xXsb7JLhaz79F5+AJAMYT/iFYHUMkuHjrvgXFv8uvpJDO9LB25E6ARj8BKCu+BEev5B+fyZfvytwdwJQewKSTCECYHAB8Bcvj8bqGGSfPycApScgyfBxdwIw+glAXS9ufdC30IxE8a8r/p19csTjfyFYHYNk+LgTAASAQj5fRKXfIAQAAUBEzBZR6efv4CfwFcDYXwHoR17ajz39/iAABhcAPx/xeFbFIP38HfwEd746GqtjkExA/cgH70dOABAABMRsEZV8fXJX/IsFUDIFq/pwu+/FHvDJ8DV/AFj8R5DJAFZ98nXfi6cuyfBxJwAIAMX8YjGfwyH9BvnAy6OxOgbJAMbjfj5YHYNk+LgTAATAnMLHZ0snAIp/XfHv7JMjHve8YHUMkuHj3u58VbBCBskU1Iu8th97MnzNp//iE5BkABX/uuLf2SfDx13xLyz+XXwlBwEwugB4WbQPsDIG2efPCUDpCUgyfNwJgNEFQF0vbn3QfzEt4MoKH9FxUXglS0A89nnB6hgkw8e9/fWrghUySKagIlwrgJLhawRA8elHMoCKf13x7+yT4eOu+BcW/y6+kkM70sHbkf75y6KxOgbZ5++xPxfByhgkw8edACAAiIj5IiL9BlH864p/Z58cin+tAEqGjzsBMLoA0I60si1q+g1CABAAThBmnyCkn7+Dn8DfANT+DUQyASuLn3tvoR85ATC2AHjMz0WwMgbJ1yd3JwBOABTy+aco6TcIATC4APjZiMewKgbp5+/gJ/jwq6KxOgbJBNSLvK4XeWefDF/zB4DFfwSZDGBV4XPfi6IrGT7uin+xAEqmIAEwuAB4/8uisToG2efPp//SE5Bk+LgTAKMLAL3IKzujpd8gin9d8e/sk8Mn8dqvP5Lh494+/MpghQySKVhZ/Nz759MFxKf/4hOQ7PP36J+NYGUMkuHjrvgXFv8uvpJDEa49AUmGr7X33xKskEEygPHonwlWxyAZPu4EwOACQD/y0n7s6TcIAVArgJIBVPzrin9nnwwf9/ZXrwxWyCCZgtqRDt6OlAAgAJwizD5FSb4+uSv+hcW/i6/kIAAGFwB/dks0Vscg+/w96mciWBmDZPi4EwAEABExX0Sk3yCKf13x7+yTIx7108HqGCTDx50AGFwA6Ede2o89/QYhAAgAImK2iEo/fwc/gb8BqP0biGQC6kc+eD9yAoAAIAAIgGQdmO9OAAwuAGrbcR56O9T5D959ngQAAUAAEADpF8ncCT70ymisjsHcuN3nd+gFuHr/yfA1fwBY/EeQyQDGI386WB2DZPi4K/7FAiiZgtUF8NDvnwxfa++7JVghg2QA45H/I1gdg2T4uBMAgwsAvcjLepH3PvDpNwgBUCuAkgFU/OuKf2efDB/39qFXBCtkkExBzUgGb0ZCABAAThFmn6IkX5/cFf/C4t/FV3IQAKMLgJdGex8rY5B9/hTv2cV7G6cnyfBxJwAIACJivohIv0EU/1oBlAxgPOKngtUxSIaPe/vLVwQrZJBMQcV7fvHeBrtk+FrZJ1/C46LwSAZQ8a8r/p19MnzcFf/C4t/FV3LoRV7bjz0Zvtb+9KXBChkkA0gAEADJFCp2dwJQewKSDL92pIO3IyUAagVQ9vnzFUDpVyDJ8HF3AjD6CUBtATx0AZJ+gxAAYwuAh/9UBCtjkH7+Dn4CJwBOAPQjr+tHTgAMLgD+e8TDWRWDg6/faQAEwNgCQC/ysl7kvQ98+vkjAAgAAmK2iEo/fwc/wQdfEY3VMUgmoF7kdb3IO/tk+PwRYLUASgaw6pOv+148dUmGj7viXyyAkilIABAA/i+CxP9FkH3+fHqf/el9GyImGT7uBAABQETMFxHpN8h7XxqN1TFIBjCufW6wOgbJ8HFvH3x5sEIGyRRUvOcX722wS4avKf7FAigZQMW/rvh39snwcVf8C4t/F1/JoRd5XS/yzj4ZPgKg+vQjGUACgABIplCxuxOA2hOQZPi30VDDHPNbmibD19p7XxKskEEygAQAAZBMoWJ3AoAA0NFsdkez9NNLANQKoGQA45rnBqtjkAwf9/YXLw9WyCCZgj69z//0vg12yfA5AagWQMkAxjU/GayOQTJ83BX/wuLfxVdybKOImWO+iEiGr7U/eUmwQgbJACr+dcW/s0+GjzsBMLgA0Ixk7GYkBECtAEqWAAKAAEimULG7rwBqvwJJhl870sHbkRIABICvEWZ/jZJ8fXJ3AuAEgIiYLyLSbxACYGwBcPVPRLAyBunn7+AncALgBMDXCLO/Rki/PwgAAoCAmC0g0s/fwU/wgZdHY3UMkgmoF3ltP/Zk+PwRYLUASgbQp//aE5Bk+Lgr/sUCKJmC22ioYY75/dyT4WvtPS8JVsggGUACgABIplCxu0//dZ/+O/vkULznF+9tsEuGjwCoFkDJABIABEAyhYrdP/CyaKyOQTL82yhi5pgvIpLhIwBGFwBX/XgEK2OQfv4OfgLFv674d/bJoXjPL97bYJcMX2vvuTlYIYNkABX/WgGUDB93n/6LT0CSKagZyeDNSAiAWgGUff58+i/79N/FVzJ83NufvyxYIYNkChIABIAThMQJQvb5IwAIgGQO1boTALUCKBl9AmBwAfDum6OxOgbZ5+/K50SwMgbJ8HH36b/w038XX8lBABAABERCRGWfP8W/rPh34ZUMH3cCYHABoB95aT/29BvEp/+6T/+dfXL49F97ApIMH3cCYHQBUNuN69C7oaXfIAQAAeAUYfYpQvr5O/gJ/A3A2H8DoJPY7E5i2xAv6fcHAUAAEAAEQPpFMneC978sGqtjMDdu9/lto4iZY/4pSjJ8zff3ie/vtyGekgGMK34sWB2DZPi4K/7FAiiZgor3/OK9DXbJ8LX2rpuDFTJIBlDxryv+nX0yfNwJgMEFgFais1uJbuPfcU+/QQiAWgGUDCABQAAkU6jY/f23RGN1DJLh30YRM8f8hibJ8DkBqBZAyQASAARAMoWK3RX/uuLf2SeH4j2/eG+DXTJ8rb3rxcEKGSQDSAAQAMkUKnYnAAgAXyPM/hoh/fQSALUCKBnA+JEfDVbHIBk+7u3PbglWyCCZgtv4FGuO+acIyfA5AagWQMkAKv51xb+zT4aPu+JfWPy7+EoO7UgHb0f6xy+OxuoYZJ8/JwClJyDJ8HEnAAgAImK+iEi/QRT/uuLf2SeHEwAnAMkUKnb3FUDtVyDJ8Cve84v3Ntglw9d8+i8+AUkGMB727GB1DJLh4+4EwAnANgrhoc6RfoM4ARj7BIAAKBVA6efv4CdwAjD2CYB/R3z2vyO+jU5u6fcHAUAAEBGzRUT6+Tv4Cd53SzRWxyCZgNsoYuaY39I0GT5fAVQLoGQAHf/XHf939snwcVf8iwVQMgUV7/nFexvskuEjAAiA2Z9+iQ8CIP3+IQAIgG0UwkOdI/0AvvPF0Vgdg2QA44efFayOQTJ83Nv7XhqskEEyBQ+18C5l38nwNcW/WAAlA6j41xX/zj4ZPu6Kf2Hx7+IrOfxb5IP/W+Q+/dd9+u/sk4MAIACSKVTs7gSg9gQkGX4CYHQBcFO0d7IyBtnnz1cApV+BJMPHvf3pS4MVMkimIAFAAJQVzzUIl+zz98PXR7AyBsnwcVf8C4t/F1/JQQAQAARA4gQl+/z90PURrIxBMnzcCQACgIiYLyLSb5A7borG6hgkA6j41wqgZPi4EwCDCwDdyMbuRqb41xX/zj45CAACIJlCxe7+BqD2byCS4deNbPBuZAQAAeArhNlfISRfn9ydADgBICLmi4j0G4QAGFvLpfO6AAAS2klEQVQA/OB1EayMQfr5O/gJnAA4AfA1wuyvEdLvjztu+qK/ASj7O4h/zcZP8a8VQNn48X/vS6OxOgbJDPTvgQ/ejOSOm+4hAMoEwN3Jx68RAARANodq/RX/uuLf2ScHATC4ADhz8vZ25qZgJQxOJR8/AqD4649s/PgTAASAfuSzO7KlXyBvO3lVO3PTeQJg7wLgfHvHiSuy8YsffGawOgbZ+PF/70uisToGyQx0AjD4CUCP/5mTbyIA9i4ATicfvQvu8QPPDFbHYBsxPOw5FP+64t/ZJwcBsAIB8O5bHtLOnPxIO3My2D4YnLiz/cELviL56F1wV/zrin9nv40YHvYcBMDYAkAzknU0I7kgAk68sZ05eZ4I2JkION/OnDi9reLfCwcBQACMLSD+5CXRWB2DZPZoR7qydqR33HxlO3PyqN1x8u525uS9xEBaDNx7keWJU9v4zv/+jysBQADcPyfG+m/Fv674d/bJQQCsTAAk82Hr7u84GS1jW1/QsiaM739GsDoGy8qGEVdDABAAvkaY/TXCiI/8g1pzpvh335UPxb+u+Hf2K0+vPWyPABhcAOhHXtmPfQ9PaO0tCIBJ/gQAATCZIIu/SACMLQA0EpndSGQbndwW/3xnF0gATBIkAAiAyQRZ/EUCgAAgImaLiMU/39kFEgCTBOP7nx6sjsFkcFw8BoH3vCQaq2NwjBBN/co2PsWaY35P86nYrOIaATAZxvi+pwerYzAZHBePQUDxryv+nX1yKN7zi/c22CXDt3z3t5+MlrHl7zC1QsW/rvh39qngcW7Np//iE5BkEupGphtZMoWm3TPFv/uufBAABMDYKf6em6OxOgbJ7CEACIBkCk27EwCTfAgAAmAyQRZ/UfGvK/6dfXIQAARAMoWm3d9+IlrGpmcf/mp839OC1TEYPoHKN0AAEADFPb1HFjHlz++uF5Ap/t135SO+92nB6hisPL32sL133xyN1TFIhlgv8rpe5J19MnzLdycAJmOk+NcV/85+MjguHoOA4l9X/Dv75NCMRDOSZApNu7/tRLSMTc8+/FUCgAAYO4kJAALgB2qL6MgiZuyH/xirzxT/7rvyEd/71GB1DFaeXnvYHgFAABAAMVeE7OEJrb0FATDJP77nqcHqGEwGx8VjECAACAACgAC41KuCALgUmQs/V/zrin9nPxkcF49BgAAYWwDoR17aj/0YT9jYv0IATMaPACAAJhNk8RffdXM0VscgmSC6kelGlkyhaXcCYJIPAUAATCbI4i8q/nXFv7NPDgKAAEim0LT7W09Ey9j07MNfje95SrA6BsMnUPkGCAACwNcIs79GKH9+d72ATPHvvisf8d1PCVbHYOXptYftvevF0Vgdg2SI9SKv60Xe2SfDt3x3AmAyRop/XfHv7CeD4+IxCCj+dcW/s08OzUg0I0mm0LQ7ATDJhwAgACYTZPEXCQAC4Ptqi+jIImbxz3d2gW99UbSMZe+/cP/47icHq2Ow8PQYYHl//OJorI5BMkVGLp5rWHsyfMt3zxT/7rvyofjXFf/OfuXptYftKf51xb+zT441FNGR95AM3/LdCYDJGMV3PTlYHYPJ4Lh4DAIEwOACoK4Xtz7oB9CN7I9eFC1jx3gFjfwrin9d8e/sR86dZaydABhbAOhHXtqPfRkP8Q5XkSn+3XflgwAgAMZOcQKAACAiZouIsR/+Y6yeAJiEFN/1pGB1DCaD4+IxCBAABAABQABc6lVBAFyKzIWfx3c+KVgdg8nguHgMAgTA4AKgrhe3PugH0I2MAJh8iSr+dcW/s58MjovHIPDOF0djdQyOEaKpX9GMRDOSqfxIXyMAJhESAATAZIIs/qLiX1f8O/vkIAAIgGQKTbu/5UXRMjY9+/BX4zufGKyOwfAJVL4BAoAA+J7aIjqyiCl/fne9gEzx774rH4p/XfHv7FeeXnvY3jtvisbqGCRDPHLxXMPak+FbvjsBMBmj+I4nBqtjMBkcF49BQPGvK/6dfXLoRV7Xi7yzT4Zv+e5veWG0jC1/h6kVKv51xb+zTwWPc2s+/RefgCSTUDcy3ciSKTTtnin+3XflgwAgAMZO8TtuisbqGCSzhwAgAJIpNO1OAEzyie94QrA6BpPBcfEYBBT/uuLf2ScHAUAAJFNo2v0PXxgtY9OzD39V8a8r/p398AlUvgECYHABUNuO89DboZY/v7teQKb4d9+Vj/j2JwSrY7Dy9NrD9ggAAuC7iYi5QmYPT2jtLQiASf6Kf13x7+wng+PiMQjccdMX/Q1A2d9B/OsxIjT5K7qR6UY2mSAu7pRAfPvjg9Ux2GlwD2LyO266hwAoEwB3Z3OMACAAsjnEfz4Bxb+u+Hf28yPH8yKBMydvb2duClbC4FQ2DQkAAiCbQ/znE4hve3ywOgbzI8fzIoG3nbyqnbnpPAGwdwFwvr3jxBXZNNSLvK4XeWefjR//sQko/nXFv7MfO3uWsvozJ99EAOxdAJzeRvh1I9ONbBt5ZI55BAgAAmBe5izJ6923PKSdOfmRduZksH0wOHFn+4MXfMU2UoAAIAC2kUfmmEcgvu1xweoYzIsarwcSuCACTryxnTl5ngjYmQg4386cOL2t4t+DSAAQAA98mP1kXwQU/7ri39nvK86Hc587br6ynTl51O44eXc7c/JeYiAtBu69yPLEqW1853//RNSOVDvS++eE/94fgfjWxwWrY7C/SLtTDYF3nIyWsZpV7+2uBAABsLdkc6MHEFD864p/Z/+AgPjByghkin/3XfnQjUw3spWn+KK3F9/62GB1DBadHBa3BQIEwCREAoAAmEwQF3dKQPGvK/6d/U6Da/IFECAAJoNAABAAkwni4k4JxLc8Nlgdg50G1+QLIEAATAZBO1LtSCcTxMWdElD864p/Z7/T4Jp8AQQIgMkgEAAEwGSCuLhTAgQAAbDTBDv4yd9+MlrGVg5QO1LtSFee4oveXnzLY4LVMVh0cljcFghkin/3XfkgAAiAlaf4oren+NcV/85+0clhcVsgQABMQtSOVDvSyQRxcacE4psfE6yOwU6Da/IFEHj7iWgZW8AWdrkEAoAA2GV+mXuagOJfV/w7++nouDo+gUzx774rH7qR6Ua28hRf9Pbimx8drI7BopPD4rZAgACYhEgAEACTCeLiTgko/nXFv7PfaXBNvgACbzsRLWML2MIul0AAEAC7zC9zTxMgAAiA6QxxNUcgU/y778qHdqTaka48xRe9vfimRwerY7Do5LC4LRAgACYhEgAEwGSCuLhTAop/XfHv7HcaXJMvgAABMBkE7Ui1I51MEBd3SiC+6VHB6hjsNLgmXwABAmAyCAQAATCZIC7ulIDiX1f8O/udBtfkCyBAAEwGQTtS7UgnE8TFnRKIb3xUsDoGOw2uyRdA4K0nomVsAVvY5RIIAAJgl/ll7mkCin9d8e/sp6Pj6vgEMsW/+6586EamG9nKU3zR24tvfGSwOgaLTg6L2wIBAmASIgFAAEwmiIs7JaD41xX/zn6nwTX5AggQAJNBIAAIgMkEcXGnBAgAAmCnCXbwk7/1RdEytnKA2pFqR7ryFF/09uIbHhmsjsGik8PitkAgU/y778oHAUAArDzFF709xb+u+Hf2i04Oi9sCAQJgEqJ2pNqRTiaIizslEN/wiGB1DHYaXJMvgMAfvShaxhawhV0ugQAgAHaZX+aeJqD41xX/zn46Oq6OTyBT/LvvyoduZLqRrTzFF709AoAAWHSCDr84AmAyhAQAATCZIC7ulEB8/SOC1THYaXBNvgACBMBkEAgAAmAyQVzcKYH4+ocHq2Ow0+CafAEECIDJIGhHqh3pZIK4uFMCin9d8e/sdxpcky+AAAEwGQQCgACYTBAXd0qAACAAdppgBz/5W14ULWMrB6gdqXakK0/xRW8vLn94sDoGi04Oi9sCgUzx774rHwQAAbDyFF/09uLyh3+RACgTAP+66OSwuC0QIAAmIWpHqh3pZIK4uFMCcfm198Tl1wYrYXD3ToNr8gUQeMsLo2VsAVvY5RIIAAJgl/ll7mkCcfnDb1f8S4p/F12npqPj6vgEMsW/+6586EamG9nKU3zR24vLrrkqLr/2PBGwdxFwPi5/xBWLTg6L2wIBAmASIgFAAEwmiIs7JxCXXfumuOzaYHtkcPm1p3ceWDdYAIE/fGG0jC1gC7tcAgFAAOwyv8y9mUC0Kx4Sl1/zkbjsmmB7YPDQa+6M9qiv2BwZvzE+gUzx774rH9qRake68hQfYnsXRMBl174xLrvmPBGwMxFwPi6/5rTiP8QjsaVFEgCTIAkAAmAyQVzcK4G4/Nor46HXHsVl19wdl11zLzGQFgOd4d3x0KtP+c5/r6nsZiMQ0I1MN7IR8tQaawhkBUjNqt0VAQSORYAAIACOlSh+6SAJxEOviYwdJDSbRmAUAgQAATBKrlrn/gnEQ6+OjO1/xe6IAALHJqAXeV0v8s7+2IHyiwgUEMgU/+5bsGS3RACB4xLQjUw3suPmit87PAIEwOHF3I4PiAABQAAcULrb6oMkEF93dWTsQd7OryOAwD4JEAAEwD7zzb3GIhBfd1VkbKzdWi0CB0ZAK9KyVqQX+sAfWLrZ7mAEMsW/+w62XctF4LAI6EdeKgD0Iz+sx2243RIAw4XMghE4PgH9yPfehez/7/2uH/nxU9VvFhAgAAqguyUC+yKgH3mpANCPfF+J7j6zCMTXXhUZm3VTTgggsB8C+pGXCQD9yPeT4u6SIBBfe2VkLHFrrgggsA8C+pHvsQ/5v/V91498H6ntHkkCmeLffZO3544AArsmoB95uuPYg+vjrh/5rlPa/FsiQABsCaRpEFgyAf3I9yIC9CNf8kNgbQ8gEF9zZWTsARP6AQIILJeAfuRbFwL6kS833a1sA4H4misiYxumdxkBBBC4NAH9yC/NxhUEdk0gU/y7767XZ34EEFgxgUwv8u67YjS2hsDOCRAAO0fsBgggcCkCupFdioyfI7B7AgTA7hm7AwIIXIIAAXAJMH6MwB4IxFdfERnbwxLdAgEE1kqAAFhrZO1rBALx1T8SGRthj9aIAAILJZDpRd59F7oty0JgCAKZ4t99h9ikRSKAwDIJaEayzLhY1WEQIAAOI852icAiCRAAiwyLRR0IAQLgQAJtmwgskQABsMSoWNOhEIj/9rDI2KFwsk8EENgBAQJgB1BNicAxCWSKf/c95m38GgIIIPBAAple5N33gTP6CQIIHJcAAXBcUn4PAQS2TkA3sq0jNSECxyZAABwblV9EAIFtEyAAtk3UfAgcn0B81cMiY8e/k99EAAEE7keAALgfEP+JwB4JxFf9cGRsj0t1KwQQWBuBTC/y7rs2HvaDwD4JZIp/993nWt0LAQRWRkAzkpUF1HaGIkAADBUui0VgXQQIgHXF027GIkAAjBUvq0VgVQQIgFWF02YGIxD/9YciY4Nt13IRQGBJBAiAJUXDWg6NQKb4d99D42W/CCCwRQKZXuTdd4tLMRUCB0eAADi4kNswAsshoBnJcmJhJYdHgAA4vJjbMQKLIUAALCYUFnKABAiAAwy6LSOwFAIEwFIiYR2HSCD+yw9Gxg6RmT0jgMCWCBAAWwJpGgRmEMgU/+4745ZcEEAAgYsENCORCQgggAACCBwgAQLgAINuywgggAACCBAAcgABBBBAAIEDJEAAHGDQbRkBBBBAAIFML/LuiyACCCCAAAIIDEhAM5IBg2bJCCCAAAIIZAkQAFmC/BFAAAEEEBiQAAEwYNAsGQEEEEAAgSwBAiBLkD8CCCCAAAIDEvBvkQ8YNEtGAAEEEEAgS4AAyBLkjwACCCCAwIAECIABg2bJCCCAAAIIZAkQAFmC/BFAAAEEEBiQAAEwYNAsGQEEEEAAgSwB7UizBPkjgAACCCAwIAECYMCgWTICCCCAAAIIIIAAAggggAACCCCAAAIIIIAAAggggAACCCCAAAIIIIAAAggggAACCCCAAAIIIIAAAggggAACCCCAAAIIIIAAAggggAACCCCAAAIIIIAAAggggAACCCCAAAIIIIAAAggggAACCCCAAAIIIIAAAggggAACCCCAAAIIIIAAAggggAACCCCAAAIIIIAAAggggAACCCCAAAIIIIAAAggggAACCCCAAAIIIIAAAggggAACCCCAAAIIIIAAAggggAACCCCAAAIIIIAAAggggAACCCCAAAIIIIAAAggggAACCCCAAAIIIIAAAggggAACCCCAAAIIIIAAAggggAACCCCAAAIIIIAAAggggAACCCCAAAIIIIAAAggggAACCCCAAAIIIIAAAggggAACCCCAAAIIIIAAAggggAACCCCAAAIIIIAAAggggAACCCCAAAIIIIAAAggggAACCCCAAAIIIIAAAggggAACCCCAAAIIIIAAAggggAACCCCAAAIIIIAAAggggAACCCCAAAIIIHCABP4fpglQJdu/aOEAAAAASUVORK5CYII=;" parent="1" vertex="1">
          <mxGeometry x="280" y="120" width="120" height="120" as="geometry" />
        </mxCell>
        <mxCell id="n9Q7WYzAMfaOzNK9uQ3S-3" value="" style="edgeStyle=entityRelationEdgeStyle;rounded=0;orthogonalLoop=1;jettySize=auto;html=1;startArrow=none;endArrow=none;segment=10;curved=1;sourcePerimeterSpacing=0;targetPerimeterSpacing=0;" edge="1" parent="1" source="n9Q7WYzAMfaOzNK9uQ3S-1" target="n9Q7WYzAMfaOzNK9uQ3S-2">
          <mxGeometry relative="1" as="geometry" />
        </mxCell>
        <mxCell id="n9Q7WYzAMfaOzNK9uQ3S-5" value="" style="edgeStyle=entityRelationEdgeStyle;rounded=0;orthogonalLoop=1;jettySize=auto;html=1;startArrow=none;endArrow=none;segment=10;curved=1;sourcePerimeterSpacing=0;targetPerimeterSpacing=0;" edge="1" parent="1" source="n9Q7WYzAMfaOzNK9uQ3S-1" target="n9Q7WYzAMfaOzNK9uQ3S-4">
          <mxGeometry relative="1" as="geometry" />
        </mxCell>
        <mxCell id="n9Q7WYzAMfaOzNK9uQ3S-7" value="" style="edgeStyle=entityRelationEdgeStyle;rounded=0;orthogonalLoop=1;jettySize=auto;html=1;startArrow=none;endArrow=none;segment=10;curved=1;sourcePerimeterSpacing=0;targetPerimeterSpacing=0;" edge="1" parent="1" source="n9Q7WYzAMfaOzNK9uQ3S-1" target="n9Q7WYzAMfaOzNK9uQ3S-6">
          <mxGeometry relative="1" as="geometry" />
        </mxCell>
        <mxCell id="n9Q7WYzAMfaOzNK9uQ3S-11" value="" style="edgeStyle=entityRelationEdgeStyle;rounded=0;orthogonalLoop=1;jettySize=auto;html=1;startArrow=none;endArrow=none;segment=10;curved=1;sourcePerimeterSpacing=0;targetPerimeterSpacing=0;" edge="1" parent="1" source="n9Q7WYzAMfaOzNK9uQ3S-1" target="n9Q7WYzAMfaOzNK9uQ3S-10">
          <mxGeometry relative="1" as="geometry" />
        </mxCell>
        <mxCell id="n9Q7WYzAMfaOzNK9uQ3S-1" value="股票买入时机评估" style="ellipse;whiteSpace=wrap;html=1;align=center;newEdgeStyle={&quot;edgeStyle&quot;:&quot;entityRelationEdgeStyle&quot;,&quot;startArrow&quot;:&quot;none&quot;,&quot;endArrow&quot;:&quot;none&quot;,&quot;segment&quot;:10,&quot;curved&quot;:1,&quot;sourcePerimeterSpacing&quot;:0,&quot;targetPerimeterSpacing&quot;:0};treeFolding=1;treeMoving=1;" vertex="1" parent="1">
          <mxGeometry x="1475" y="450" width="130" height="50" as="geometry" />
        </mxCell>
        <mxCell id="n9Q7WYzAMfaOzNK9uQ3S-2" value="基本面分析方法" style="whiteSpace=wrap;html=1;" vertex="1" parent="1">
          <mxGeometry x="1695" y="360" width="120" height="60" as="geometry" />
        </mxCell>
        <mxCell id="n9Q7WYzAMfaOzNK9uQ3S-13" value="" style="edgeStyle=orthogonalEdgeStyle;rounded=0;orthogonalLoop=1;jettySize=auto;html=1;" edge="1" parent="1" source="n9Q7WYzAMfaOzNK9uQ3S-4" target="n9Q7WYzAMfaOzNK9uQ3S-12">
          <mxGeometry relative="1" as="geometry" />
        </mxCell>
        <mxCell id="n9Q7WYzAMfaOzNK9uQ3S-15" value="" style="edgeStyle=orthogonalEdgeStyle;rounded=0;orthogonalLoop=1;jettySize=auto;html=1;" edge="1" parent="1" source="n9Q7WYzAMfaOzNK9uQ3S-4" target="n9Q7WYzAMfaOzNK9uQ3S-14">
          <mxGeometry relative="1" as="geometry" />
        </mxCell>
        <mxCell id="n9Q7WYzAMfaOzNK9uQ3S-4" value="技术指标应用" style="whiteSpace=wrap;html=1;" vertex="1" parent="1">
          <mxGeometry x="1695" y="540" width="120" height="60" as="geometry" />
        </mxCell>
        <mxCell id="n9Q7WYzAMfaOzNK9uQ3S-6" value="市场情绪分析" style="whiteSpace=wrap;html=1;" vertex="1" parent="1">
          <mxGeometry x="1375" y="300" width="120" height="60" as="geometry" />
        </mxCell>
        <mxCell id="n9Q7WYzAMfaOzNK9uQ3S-10" value="宏观经济因素考量" style="whiteSpace=wrap;html=1;" vertex="1" parent="1">
          <mxGeometry x="1270" y="445" width="120" height="60" as="geometry" />
        </mxCell>
        <mxCell id="n9Q7WYzAMfaOzNK9uQ3S-12" value="技术指标应用" style="whiteSpace=wrap;html=1;" vertex="1" parent="1">
          <mxGeometry x="1990" y="580" width="120" height="60" as="geometry" />
        </mxCell>
        <mxCell id="n9Q7WYzAMfaOzNK9uQ3S-14" value="模型原理，适用行业" style="whiteSpace=wrap;html=1;" vertex="1" parent="1">
          <mxGeometry x="1990" y="480" width="120" height="60" as="geometry" />
        </mxCell>
      </root>
    </mxGraphModel>
  </diagram>
</mxfile>
